{
    "asset" : {
        "generator" : "Khronos glTF Blender I/O v1.8.19",
        "version" : "2.0"
    },
    "scene" : 0,
    "scenes" : [
        {
            "name" : "Scene",
            "nodes" : [
                0
            ]
        }
    ],
    "nodes" : [
        {
            "mesh" : 0,
            "name" : "\u9053\u8def17"
        }
    ],
    "materials" : [
        {
            "doubleSided" : true,
            "name" : "ConcreteMix.003",
            "pbrMetallicRoughness" : {
                "baseColorTexture" : {
                    "index" : 0
                },
                "metallicFactor" : 0
            }
        },
        {
            "doubleSided" : true,
            "name" : "Roads.002",
            "pbrMetallicRoughness" : {
                "baseColorTexture" : {
                    "index" : 1
                },
                "metallicFactor" : 0,
                "roughnessFactor" : 0.9960629940032959
            }
        },
        {
            "doubleSided" : true,
            "name" : "ConcretePoured.002",
            "pbrMetallicRoughness" : {
                "baseColorTexture" : {
                    "index" : 2
                },
                "metallicFactor" : 0
            }
        },
        {
            "doubleSided" : true,
            "name" : "Lights.003",
            "pbrMetallicRoughness" : {
                "baseColorFactor" : [
                    1,
                    0.784313976764679,
                    0.6078429818153381,
                    1
                ],
                "metallicFactor" : 0
            }
        },
        {
            "doubleSided" : true,
            "name" : "MetalGalvanized.003",
            "pbrMetallicRoughness" : {
                "baseColorFactor" : [
                    0.5879999995231628,
                    0.5879999995231628,
                    0.5879999995231628,
                    1
                ],
                "metallicFactor" : 0.14960630238056183,
                "roughnessFactor" : 0.6968504190444946
            }
        }
    ],
    "meshes" : [
        {
            "name" : "Obj3d66-1343023-18-616",
            "primitives" : [
                {
                    "attributes" : {
                        "POSITION" : 0,
                        "NORMAL" : 1,
                        "TEXCOORD_0" : 2
                    },
                    "indices" : 3,
                    "material" : 0
                },
                {
                    "attributes" : {
                        "POSITION" : 4,
                        "NORMAL" : 5,
                        "TEXCOORD_0" : 6
                    },
                    "indices" : 7,
                    "material" : 1
                },
                {
                    "attributes" : {
                        "POSITION" : 8,
                        "NORMAL" : 9,
                        "TEXCOORD_0" : 10
                    },
                    "indices" : 11,
                    "material" : 2
                },
                {
                    "attributes" : {
                        "POSITION" : 12,
                        "NORMAL" : 13,
                        "TEXCOORD_0" : 14
                    },
                    "indices" : 15,
                    "material" : 3
                },
                {
                    "attributes" : {
                        "POSITION" : 16,
                        "NORMAL" : 17,
                        "TEXCOORD_0" : 18
                    },
                    "indices" : 19,
                    "material" : 4
                }
            ]
        }
    ],
    "textures" : [
        {
            "sampler" : 0,
            "source" : 0
        },
        {
            "sampler" : 0,
            "source" : 1
        },
        {
            "sampler" : 0,
            "source" : 2
        }
    ],
    "images" : [
        {
            "bufferView" : 4,
            "mimeType" : "image/jpeg",
            "name" : "Image_0"
        },
        {
            "bufferView" : 9,
            "mimeType" : "image/jpeg",
            "name" : "Image_1"
        },
        {
            "bufferView" : 14,
            "mimeType" : "image/jpeg",
            "name" : "Image_2"
        }
    ],
    "accessors" : [
        {
            "bufferView" : 0,
            "componentType" : 5126,
            "count" : 3301,
            "max" : [
                20.31637954711914,
                2.564222812652588,
                33.16909408569336
            ],
            "min" : [
                -33.458778381347656,
                1.2874603271484375e-05,
                -20.441707611083984
            ],
            "type" : "VEC3"
        },
        {
            "bufferView" : 1,
            "componentType" : 5126,
            "count" : 3301,
            "type" : "VEC3"
        },
        {
            "bufferView" : 2,
            "componentType" : 5126,
            "count" : 3301,
            "type" : "VEC2"
        },
        {
            "bufferView" : 3,
            "componentType" : 5123,
            "count" : 8172,
            "type" : "SCALAR"
        },
        {
            "bufferView" : 5,
            "componentType" : 5126,
            "count" : 2450,
            "max" : [
                19.879459381103516,
                0.0020189285278320312,
                31.01018524169922
            ],
            "min" : [
                -33.45878601074219,
                0,
                -20.241790771484375
            ],
            "type" : "VEC3"
        },
        {
            "bufferView" : 6,
            "componentType" : 5126,
            "count" : 2450,
            "type" : "VEC3"
        },
        {
            "bufferView" : 7,
            "componentType" : 5126,
            "count" : 2450,
            "type" : "VEC2"
        },
        {
            "bufferView" : 8,
            "componentType" : 5123,
            "count" : 2736,
            "type" : "SCALAR"
        },
        {
            "bufferView" : 10,
            "componentType" : 5126,
            "count" : 296,
            "max" : [
                20.02920150756836,
                2.2000160217285156,
                31.018096923828125
            ],
            "min" : [
                -33.458763122558594,
                1.4781951904296875e-05,
                -20.39171600341797
            ],
            "type" : "VEC3"
        },
        {
            "bufferView" : 11,
            "componentType" : 5126,
            "count" : 296,
            "type" : "VEC3"
        },
        {
            "bufferView" : 12,
            "componentType" : 5126,
            "count" : 296,
            "type" : "VEC2"
        },
        {
            "bufferView" : 13,
            "componentType" : 5123,
            "count" : 864,
            "type" : "SCALAR"
        },
        {
            "bufferView" : 15,
            "componentType" : 5126,
            "count" : 510,
            "max" : [
                10.588685035705566,
                9.621230125427246,
                19.783203125
            ],
            "min" : [
                -19.34648895263672,
                9.579535484313965,
                -15.620991706848145
            ],
            "type" : "VEC3"
        },
        {
            "bufferView" : 16,
            "componentType" : 5126,
            "count" : 510,
            "type" : "VEC3"
        },
        {
            "bufferView" : 17,
            "componentType" : 5126,
            "count" : 510,
            "type" : "VEC2"
        },
        {
            "bufferView" : 18,
            "componentType" : 5123,
            "count" : 2736,
            "type" : "SCALAR"
        },
        {
            "bufferView" : 19,
            "componentType" : 5126,
            "count" : 2750,
            "max" : [
                13.226067543029785,
                9.821228981018066,
                20.75060272216797
            ],
            "min" : [
                -19.356746673583984,
                1.2874603271484375e-05,
                -18.594676971435547
            ],
            "type" : "VEC3"
        },
        {
            "bufferView" : 20,
            "componentType" : 5126,
            "count" : 2750,
            "type" : "VEC3"
        },
        {
            "bufferView" : 21,
            "componentType" : 5126,
            "count" : 2750,
            "type" : "VEC2"
        },
        {
            "bufferView" : 22,
            "componentType" : 5123,
            "count" : 10800,
            "type" : "SCALAR"
        }
    ],
    "bufferViews" : [
        {
            "buffer" : 0,
            "byteLength" : 39612,
            "byteOffset" : 0
        },
        {
            "buffer" : 0,
            "byteLength" : 39612,
            "byteOffset" : 39612
        },
        {
            "buffer" : 0,
            "byteLength" : 26408,
            "byteOffset" : 79224
        },
        {
            "buffer" : 0,
            "byteLength" : 16344,
            "byteOffset" : 105632
        },
        {
            "buffer" : 0,
            "byteLength" : 47724,
            "byteOffset" : 121976
        },
        {
            "buffer" : 0,
            "byteLength" : 29400,
            "byteOffset" : 169700
        },
        {
            "buffer" : 0,
            "byteLength" : 29400,
            "byteOffset" : 199100
        },
        {
            "buffer" : 0,
            "byteLength" : 19600,
            "byteOffset" : 228500
        },
        {
            "buffer" : 0,
            "byteLength" : 5472,
            "byteOffset" : 248100
        },
        {
            "buffer" : 0,
            "byteLength" : 71425,
            "byteOffset" : 253572
        },
        {
            "buffer" : 0,
            "byteLength" : 3552,
            "byteOffset" : 325000
        },
        {
            "buffer" : 0,
            "byteLength" : 3552,
            "byteOffset" : 328552
        },
        {
            "buffer" : 0,
            "byteLength" : 2368,
            "byteOffset" : 332104
        },
        {
            "buffer" : 0,
            "byteLength" : 1728,
            "byteOffset" : 334472
        },
        {
            "buffer" : 0,
            "byteLength" : 44354,
            "byteOffset" : 336200
        },
        {
            "buffer" : 0,
            "byteLength" : 6120,
            "byteOffset" : 380556
        },
        {
            "buffer" : 0,
            "byteLength" : 6120,
            "byteOffset" : 386676
        },
        {
            "buffer" : 0,
            "byteLength" : 4080,
            "byteOffset" : 392796
        },
        {
            "buffer" : 0,
            "byteLength" : 5472,
            "byteOffset" : 396876
        },
        {
            "buffer" : 0,
            "byteLength" : 33000,
            "byteOffset" : 402348
        },
        {
            "buffer" : 0,
            "byteLength" : 33000,
            "byteOffset" : 435348
        },
        {
            "buffer" : 0,
            "byteLength" : 22000,
            "byteOffset" : 468348
        },
        {
            "buffer" : 0,
            "byteLength" : 21600,
            "byteOffset" : 490348
        }
    ],
    "samplers" : [
        {
            "magFilter" : 9729,
            "minFilter" : 9987
        }
    ],
    "buffers" : [
        {
            "byteLength" : 511948,
            "uri" : "data:application/octet-stream;base64,"
        }
    ]
}
