{
    "asset" : {
        "generator" : "Khronos glTF Blender I/O v1.8.19",
        "version" : "2.0"
    },
    "scene" : 0,
    "scenes" : [
        {
            "name" : "Scene",
            "nodes" : [
                0
            ]
        }
    ],
    "nodes" : [
        {
            "mesh" : 0,
            "name" : "\u9053\u8def14"
        }
    ],
    "materials" : [
        {
            "doubleSided" : true,
            "name" : "Roads",
            "pbrMetallicRoughness" : {
                "baseColorTexture" : {
                    "index" : 0
                },
                "metallicFactor" : 0,
                "roughnessFactor" : 0.9960629940032959
            }
        },
        {
            "doubleSided" : true,
            "name" : "ConcreteMix",
            "pbrMetallicRoughness" : {
                "baseColorTexture" : {
                    "index" : 1
                },
                "metallicFactor" : 0
            }
        },
        {
            "doubleSided" : true,
            "name" : "ConcretePoured",
            "pbrMetallicRoughness" : {
                "baseColorTexture" : {
                    "index" : 2
                },
                "metallicFactor" : 0
            }
        },
        {
            "doubleSided" : true,
            "name" : "Lights",
            "pbrMetallicRoughness" : {
                "baseColorFactor" : [
                    1,
                    0.784313976764679,
                    0.6078429818153381,
                    1
                ],
                "metallicFactor" : 0
            }
        },
        {
            "doubleSided" : true,
            "name" : "MetalGalvanized",
            "pbrMetallicRoughness" : {
                "baseColorFactor" : [
                    0.5879999995231628,
                    0.5879999995231628,
                    0.5879999995231628,
                    1
                ],
                "metallicFactor" : 0.14960630238056183,
                "roughnessFactor" : 0.6968504190444946
            }
        }
    ],
    "meshes" : [
        {
            "name" : "Obj3d66-1343023-1-837",
            "primitives" : [
                {
                    "attributes" : {
                        "POSITION" : 0,
                        "NORMAL" : 1,
                        "TEXCOORD_0" : 2
                    },
                    "indices" : 3,
                    "material" : 0
                },
                {
                    "attributes" : {
                        "POSITION" : 4,
                        "NORMAL" : 5,
                        "TEXCOORD_0" : 6
                    },
                    "indices" : 7,
                    "material" : 1
                },
                {
                    "attributes" : {
                        "POSITION" : 8,
                        "NORMAL" : 9,
                        "TEXCOORD_0" : 10
                    },
                    "indices" : 11,
                    "material" : 2
                },
                {
                    "attributes" : {
                        "POSITION" : 12,
                        "NORMAL" : 13,
                        "TEXCOORD_0" : 14
                    },
                    "indices" : 15,
                    "material" : 3
                },
                {
                    "attributes" : {
                        "POSITION" : 16,
                        "NORMAL" : 17,
                        "TEXCOORD_0" : 18
                    },
                    "indices" : 19,
                    "material" : 4
                }
            ]
        }
    ],
    "textures" : [
        {
            "sampler" : 0,
            "source" : 0
        },
        {
            "sampler" : 0,
            "source" : 1
        },
        {
            "sampler" : 0,
            "source" : 2
        }
    ],
    "images" : [
        {
            "bufferView" : 4,
            "mimeType" : "image/jpeg",
            "name" : "Image_0"
        },
        {
            "bufferView" : 9,
            "mimeType" : "image/jpeg",
            "name" : "Image_1"
        },
        {
            "bufferView" : 14,
            "mimeType" : "image/jpeg",
            "name" : "Image_2"
        }
    ],
    "accessors" : [
        {
            "bufferView" : 0,
            "componentType" : 5126,
            "count" : 1426,
            "max" : [
                34.763553619384766,
                0.0020169999916106462,
                6.000040054321289
            ],
            "min" : [
                -37.236385345458984,
                0,
                -6
            ],
            "type" : "VEC3"
        },
        {
            "bufferView" : 1,
            "componentType" : 5126,
            "count" : 1426,
            "type" : "VEC3"
        },
        {
            "bufferView" : 2,
            "componentType" : 5126,
            "count" : 1426,
            "type" : "VEC2"
        },
        {
            "bufferView" : 3,
            "componentType" : 5123,
            "count" : 2736,
            "type" : "SCALAR"
        },
        {
            "bufferView" : 5,
            "componentType" : 5126,
            "count" : 3714,
            "max" : [
                37.236385345458984,
                2.564220905303955,
                6.633618354797363
            ],
            "min" : [
                -37.236358642578125,
                1.9999999949504854e-06,
                -6.633618354797363
            ],
            "type" : "VEC3"
        },
        {
            "bufferView" : 6,
            "componentType" : 5126,
            "count" : 3714,
            "type" : "VEC3"
        },
        {
            "bufferView" : 7,
            "componentType" : 5126,
            "count" : 3714,
            "type" : "VEC2"
        },
        {
            "bufferView" : 8,
            "componentType" : 5123,
            "count" : 8172,
            "type" : "SCALAR"
        },
        {
            "bufferView" : 10,
            "componentType" : 5126,
            "count" : 454,
            "max" : [
                34.76366424560547,
                2.2000131607055664,
                6.150025367736816
            ],
            "min" : [
                -37.236358642578125,
                1.299975974689005e-05,
                -6.149946212768555
            ],
            "type" : "VEC3"
        },
        {
            "bufferView" : 11,
            "componentType" : 5126,
            "count" : 454,
            "type" : "VEC3"
        },
        {
            "bufferView" : 12,
            "componentType" : 5126,
            "count" : 454,
            "type" : "VEC2"
        },
        {
            "bufferView" : 13,
            "componentType" : 5123,
            "count" : 864,
            "type" : "SCALAR"
        },
        {
            "bufferView" : 15,
            "componentType" : 5126,
            "count" : 510,
            "max" : [
                21.90355682373047,
                9.621216773986816,
                3.456206798553467
            ],
            "min" : [
                -24.37640380859375,
                9.579524993896484,
                -3.456210136413574
            ],
            "type" : "VEC3"
        },
        {
            "bufferView" : 16,
            "componentType" : 5126,
            "count" : 510,
            "type" : "VEC3"
        },
        {
            "bufferView" : 17,
            "componentType" : 5126,
            "count" : 510,
            "type" : "VEC2"
        },
        {
            "bufferView" : 18,
            "componentType" : 5123,
            "count" : 2736,
            "type" : "SCALAR"
        },
        {
            "bufferView" : 19,
            "componentType" : 5126,
            "count" : 2596,
            "max" : [
                21.913555145263672,
                9.82121467590332,
                6.547787666320801
            ],
            "min" : [
                -24.386402130126953,
                1.9999999949504854e-06,
                -6.547786712646484
            ],
            "type" : "VEC3"
        },
        {
            "bufferView" : 20,
            "componentType" : 5126,
            "count" : 2596,
            "type" : "VEC3"
        },
        {
            "bufferView" : 21,
            "componentType" : 5126,
            "count" : 2596,
            "type" : "VEC2"
        },
        {
            "bufferView" : 22,
            "componentType" : 5123,
            "count" : 10800,
            "type" : "SCALAR"
        }
    ],
    "bufferViews" : [
        {
            "buffer" : 0,
            "byteLength" : 17112,
            "byteOffset" : 0
        },
        {
            "buffer" : 0,
            "byteLength" : 17112,
            "byteOffset" : 17112
        },
        {
            "buffer" : 0,
            "byteLength" : 11408,
            "byteOffset" : 34224
        },
        {
            "buffer" : 0,
            "byteLength" : 5472,
            "byteOffset" : 45632
        },
        {
            "buffer" : 0,
            "byteLength" : 71425,
            "byteOffset" : 51104
        },
        {
            "buffer" : 0,
            "byteLength" : 44568,
            "byteOffset" : 122532
        },
        {
            "buffer" : 0,
            "byteLength" : 44568,
            "byteOffset" : 167100
        },
        {
            "buffer" : 0,
            "byteLength" : 29712,
            "byteOffset" : 211668
        },
        {
            "buffer" : 0,
            "byteLength" : 16344,
            "byteOffset" : 241380
        },
        {
            "buffer" : 0,
            "byteLength" : 47724,
            "byteOffset" : 257724
        },
        {
            "buffer" : 0,
            "byteLength" : 5448,
            "byteOffset" : 305448
        },
        {
            "buffer" : 0,
            "byteLength" : 5448,
            "byteOffset" : 310896
        },
        {
            "buffer" : 0,
            "byteLength" : 3632,
            "byteOffset" : 316344
        },
        {
            "buffer" : 0,
            "byteLength" : 1728,
            "byteOffset" : 319976
        },
        {
            "buffer" : 0,
            "byteLength" : 44354,
            "byteOffset" : 321704
        },
        {
            "buffer" : 0,
            "byteLength" : 6120,
            "byteOffset" : 366060
        },
        {
            "buffer" : 0,
            "byteLength" : 6120,
            "byteOffset" : 372180
        },
        {
            "buffer" : 0,
            "byteLength" : 4080,
            "byteOffset" : 378300
        },
        {
            "buffer" : 0,
            "byteLength" : 5472,
            "byteOffset" : 382380
        },
        {
            "buffer" : 0,
            "byteLength" : 31152,
            "byteOffset" : 387852
        },
        {
            "buffer" : 0,
            "byteLength" : 31152,
            "byteOffset" : 419004
        },
        {
            "buffer" : 0,
            "byteLength" : 20768,
            "byteOffset" : 450156
        },
        {
            "buffer" : 0,
            "byteLength" : 21600,
            "byteOffset" : 470924
        }
    ],
    "samplers" : [
        {
            "magFilter" : 9729,
            "minFilter" : 9987
        }
    ],
    "buffers" : [
        {
            "byteLength" : 492524,
            "uri" : "data:application/octet-stream;base64,"
        }
    ]
}
