{
    "asset" : {
        "generator" : "Khronos glTF Blender I/O v1.8.19",
        "version" : "2.0"
    },
    "scene" : 0,
    "scenes" : [
        {
            "name" : "Scene",
            "nodes" : [
                0
            ]
        }
    ],
    "nodes" : [
        {
            "mesh" : 0,
            "name" : "\u4f4f\u5b85\u697c05"
        }
    ],
    "materials" : [
        {
            "doubleSided" : true,
            "name" : "vray Mat3d66-552696-8-85",
            "pbrMetallicRoughness" : {
                "baseColorTexture" : {
                    "index" : 0
                },
                "metallicFactor" : 0,
                "roughnessFactor" : 0.5
            }
        },
        {
            "doubleSided" : true,
            "name" : "vray Mat3d66-552696-10-246",
            "pbrMetallicRoughness" : {
                "baseColorTexture" : {
                    "index" : 1
                },
                "metallicFactor" : 0,
                "roughnessFactor" : 0.5
            }
        },
        {
            "doubleSided" : true,
            "name" : "ld11.002",
            "pbrMetallicRoughness" : {
                "baseColorFactor" : [
                    0.5,
                    0.5,
                    0.5,
                    1
                ],
                "metallicFactor" : 0,
                "roughnessFactor" : 0.5
            }
        },
        {
            "doubleSided" : true,
            "name" : "vray Mat3d66-552696-9-707",
            "pbrMetallicRoughness" : {
                "baseColorFactor" : [
                    0.21176500618457794,
                    0.22745099663734436,
                    0.24313700199127197,
                    1
                ],
                "metallicFactor" : 0,
                "roughnessFactor" : 0.5
            }
        },
        {
            "alphaMode" : "BLEND",
            "doubleSided" : true,
            "name" : "vray Mat3d66-552696-5-14",
            "pbrMetallicRoughness" : {
                "baseColorFactor" : [
                    0.24705900251865387,
                    0.3294120132923126,
                    0.35686299204826355,
                    0.8425197005271912
                ],
                "metallicFactor" : 0,
                "roughnessFactor" : 0.5
            }
        }
    ],
    "meshes" : [
        {
            "name" : "Obj3d66-555102-48-467",
            "primitives" : [
                {
                    "attributes" : {
                        "POSITION" : 0,
                        "NORMAL" : 1,
                        "TEXCOORD_0" : 2
                    },
                    "indices" : 3,
                    "material" : 0
                },
                {
                    "attributes" : {
                        "POSITION" : 4,
                        "NORMAL" : 5,
                        "TEXCOORD_0" : 6
                    },
                    "indices" : 7,
                    "material" : 1
                },
                {
                    "attributes" : {
                        "POSITION" : 8,
                        "NORMAL" : 9,
                        "TEXCOORD_0" : 10
                    },
                    "indices" : 11,
                    "material" : 2
                },
                {
                    "attributes" : {
                        "POSITION" : 12,
                        "NORMAL" : 13,
                        "TEXCOORD_0" : 14
                    },
                    "indices" : 15,
                    "material" : 3
                },
                {
                    "attributes" : {
                        "POSITION" : 16,
                        "NORMAL" : 17,
                        "TEXCOORD_0" : 18
                    },
                    "indices" : 19,
                    "material" : 4
                }
            ]
        }
    ],
    "textures" : [
        {
            "sampler" : 0,
            "source" : 0
        },
        {
            "sampler" : 0,
            "source" : 1
        }
    ],
    "images" : [
        {
            "bufferView" : 4,
            "mimeType" : "image/jpeg",
            "name" : "Image_0"
        },
        {
            "bufferView" : 9,
            "mimeType" : "image/jpeg",
            "name" : "Image_1"
        }
    ],
    "accessors" : [
        {
            "bufferView" : 0,
            "componentType" : 5126,
            "count" : 4005,
            "max" : [
                9.635902404785156,
                11.800008773803711,
                7.829153537750244
            ],
            "min" : [
                -9.564125061035156,
                0,
                -7.370882987976074
            ],
            "type" : "VEC3"
        },
        {
            "bufferView" : 1,
            "componentType" : 5126,
            "count" : 4005,
            "type" : "VEC3"
        },
        {
            "bufferView" : 2,
            "componentType" : 5126,
            "count" : 4005,
            "type" : "VEC2"
        },
        {
            "bufferView" : 3,
            "componentType" : 5123,
            "count" : 5160,
            "type" : "SCALAR"
        },
        {
            "bufferView" : 5,
            "componentType" : 5126,
            "count" : 718,
            "max" : [
                7.5359039306640625,
                11.800002098083496,
                7.529148578643799
            ],
            "min" : [
                -7.4641265869140625,
                7.799992561340332,
                -7.07088565826416
            ],
            "type" : "VEC3"
        },
        {
            "bufferView" : 6,
            "componentType" : 5126,
            "count" : 718,
            "type" : "VEC3"
        },
        {
            "bufferView" : 7,
            "componentType" : 5126,
            "count" : 718,
            "type" : "VEC2"
        },
        {
            "bufferView" : 8,
            "componentType" : 5123,
            "count" : 840,
            "type" : "SCALAR"
        },
        {
            "bufferView" : 10,
            "componentType" : 5126,
            "count" : 331,
            "max" : [
                9.235893249511719,
                11.164887428283691,
                7.429132461547852
            ],
            "min" : [
                -9.16412353515625,
                9.5367431640625e-07,
                -6.9708662033081055
            ],
            "type" : "VEC3"
        },
        {
            "bufferView" : 11,
            "componentType" : 5126,
            "count" : 331,
            "type" : "VEC3"
        },
        {
            "bufferView" : 12,
            "componentType" : 5126,
            "count" : 331,
            "type" : "VEC2"
        },
        {
            "bufferView" : 13,
            "componentType" : 5123,
            "count" : 456,
            "type" : "SCALAR"
        },
        {
            "bufferView" : 14,
            "componentType" : 5126,
            "count" : 16330,
            "max" : [
                9.665908813476562,
                11.900005340576172,
                7.859153747558594
            ],
            "min" : [
                -9.594123840332031,
                0.6000008583068848,
                -7.400879859924316
            ],
            "type" : "VEC3"
        },
        {
            "bufferView" : 15,
            "componentType" : 5126,
            "count" : 16330,
            "type" : "VEC3"
        },
        {
            "bufferView" : 16,
            "componentType" : 5126,
            "count" : 16330,
            "type" : "VEC2"
        },
        {
            "bufferView" : 17,
            "componentType" : 5123,
            "count" : 23160,
            "type" : "SCALAR"
        },
        {
            "bufferView" : 18,
            "componentType" : 5126,
            "count" : 2322,
            "max" : [
                9.440902709960938,
                10.720008850097656,
                7.737494468688965
            ],
            "min" : [
                -9.369125366210938,
                0.6000046730041504,
                -7.279234886169434
            ],
            "type" : "VEC3"
        },
        {
            "bufferView" : 19,
            "componentType" : 5126,
            "count" : 2322,
            "type" : "VEC3"
        },
        {
            "bufferView" : 20,
            "componentType" : 5126,
            "count" : 2322,
            "type" : "VEC2"
        },
        {
            "bufferView" : 21,
            "componentType" : 5123,
            "count" : 3096,
            "type" : "SCALAR"
        }
    ],
    "bufferViews" : [
        {
            "buffer" : 0,
            "byteLength" : 48060,
            "byteOffset" : 0
        },
        {
            "buffer" : 0,
            "byteLength" : 48060,
            "byteOffset" : 48060
        },
        {
            "buffer" : 0,
            "byteLength" : 32040,
            "byteOffset" : 96120
        },
        {
            "buffer" : 0,
            "byteLength" : 10320,
            "byteOffset" : 128160
        },
        {
            "buffer" : 0,
            "byteLength" : 569973,
            "byteOffset" : 138480
        },
        {
            "buffer" : 0,
            "byteLength" : 8616,
            "byteOffset" : 708456
        },
        {
            "buffer" : 0,
            "byteLength" : 8616,
            "byteOffset" : 717072
        },
        {
            "buffer" : 0,
            "byteLength" : 5744,
            "byteOffset" : 725688
        },
        {
            "buffer" : 0,
            "byteLength" : 1680,
            "byteOffset" : 731432
        },
        {
            "buffer" : 0,
            "byteLength" : 78860,
            "byteOffset" : 733112
        },
        {
            "buffer" : 0,
            "byteLength" : 3972,
            "byteOffset" : 811972
        },
        {
            "buffer" : 0,
            "byteLength" : 3972,
            "byteOffset" : 815944
        },
        {
            "buffer" : 0,
            "byteLength" : 2648,
            "byteOffset" : 819916
        },
        {
            "buffer" : 0,
            "byteLength" : 912,
            "byteOffset" : 822564
        },
        {
            "buffer" : 0,
            "byteLength" : 195960,
            "byteOffset" : 823476
        },
        {
            "buffer" : 0,
            "byteLength" : 195960,
            "byteOffset" : 1019436
        },
        {
            "buffer" : 0,
            "byteLength" : 130640,
            "byteOffset" : 1215396
        },
        {
            "buffer" : 0,
            "byteLength" : 46320,
            "byteOffset" : 1346036
        },
        {
            "buffer" : 0,
            "byteLength" : 27864,
            "byteOffset" : 1392356
        },
        {
            "buffer" : 0,
            "byteLength" : 27864,
            "byteOffset" : 1420220
        },
        {
            "buffer" : 0,
            "byteLength" : 18576,
            "byteOffset" : 1448084
        },
        {
            "buffer" : 0,
            "byteLength" : 6192,
            "byteOffset" : 1466660
        }
    ],
    "samplers" : [
        {
            "magFilter" : 9729,
            "minFilter" : 9987
        }
    ],
    "buffers" : [
        {
            "byteLength" : 1472852,
            "uri" : "data:application/octet-stream;base64,"
        }
    ]
}
