{
    "asset" : {
        "generator" : "Khronos glTF Blender I/O v1.8.19",
        "version" : "2.0"
    },
    "scene" : 0,
    "scenes" : [
        {
            "name" : "Scene",
            "nodes" : [
                0
            ]
        }
    ],
    "nodes" : [
        {
            "mesh" : 0,
            "name" : "\u82b1\u575b_\u7eff\u690d19"
        }
    ],
    "materials" : [
        {
            "doubleSided" : true,
            "name" : "Mat3d66-5324545-4-30480.001",
            "pbrMetallicRoughness" : {
                "baseColorFactor" : [
                    0.917647123336792,
                    0.9960784912109375,
                    0.2705882489681244,
                    1
                ],
                "metallicFactor" : 0,
                "roughnessFactor" : 0.858578622341156
            }
        },
        {
            "doubleSided" : true,
            "name" : "Mat3d66-5324545-9-15249",
            "pbrMetallicRoughness" : {
                "baseColorFactor" : [
                    0.800000011920929,
                    0.800000011920929,
                    0.800000011920929,
                    1
                ],
                "metallicFactor" : 0,
                "roughnessFactor" : 0.858578622341156
            }
        },
        {
            "doubleSided" : true,
            "name" : "Mat3d66-5324545-46-43890",
            "pbrMetallicRoughness" : {
                "baseColorFactor" : [
                    0.800000011920929,
                    0.800000011920929,
                    0.800000011920929,
                    1
                ],
                "metallicFactor" : 0,
                "roughnessFactor" : 0.858578622341156
            }
        },
        {
            "doubleSided" : true,
            "name" : "Mat3d66-5324545-8-39503.003",
            "pbrMetallicRoughness" : {
                "baseColorTexture" : {
                    "index" : 0
                },
                "metallicFactor" : 0,
                "roughnessFactor" : 0.858578622341156
            }
        },
        {
            "doubleSided" : true,
            "name" : "Mat3d66-5324545-6-22971.001",
            "pbrMetallicRoughness" : {
                "baseColorFactor" : [
                    0.3450980484485626,
                    0.5607843399047852,
                    0.0784313753247261,
                    1
                ],
                "metallicFactor" : 0,
                "roughnessFactor" : 0.858578622341156
            }
        },
        {
            "doubleSided" : true,
            "name" : "Mat3d66-5324545-5-67738.001",
            "pbrMetallicRoughness" : {
                "baseColorFactor" : [
                    1,
                    0.349692702293396,
                    0.22506648302078247,
                    1
                ],
                "metallicFactor" : 0,
                "roughnessFactor" : 0.858578622341156
            }
        }
    ],
    "meshes" : [
        {
            "name" : "\u7f51\u683c.101",
            "primitives" : [
                {
                    "attributes" : {
                        "POSITION" : 0,
                        "NORMAL" : 1,
                        "TEXCOORD_0" : 2,
                        "TEXCOORD_1" : 3
                    },
                    "indices" : 4,
                    "material" : 0
                },
                {
                    "attributes" : {
                        "POSITION" : 5,
                        "NORMAL" : 6,
                        "TEXCOORD_0" : 7,
                        "TEXCOORD_1" : 8
                    },
                    "indices" : 9,
                    "material" : 1
                },
                {
                    "attributes" : {
                        "POSITION" : 10,
                        "NORMAL" : 11,
                        "TEXCOORD_0" : 12,
                        "TEXCOORD_1" : 13
                    },
                    "indices" : 14,
                    "material" : 2
                },
                {
                    "attributes" : {
                        "POSITION" : 15,
                        "NORMAL" : 16,
                        "TEXCOORD_0" : 17,
                        "TEXCOORD_1" : 18
                    },
                    "indices" : 19,
                    "material" : 3
                },
                {
                    "attributes" : {
                        "POSITION" : 20,
                        "NORMAL" : 21,
                        "TEXCOORD_0" : 22,
                        "TEXCOORD_1" : 23
                    },
                    "indices" : 24,
                    "material" : 4
                },
                {
                    "attributes" : {
                        "POSITION" : 25,
                        "NORMAL" : 26,
                        "TEXCOORD_0" : 27,
                        "TEXCOORD_1" : 28
                    },
                    "indices" : 29,
                    "material" : 5
                }
            ]
        }
    ],
    "textures" : [
        {
            "sampler" : 0,
            "source" : 0
        }
    ],
    "images" : [
        {
            "bufferView" : 20,
            "mimeType" : "image/jpeg",
            "name" : "Image_2"
        }
    ],
    "accessors" : [
        {
            "bufferView" : 0,
            "componentType" : 5126,
            "count" : 14991,
            "max" : [
                2.5878891944885254,
                6.671542644500732,
                2.3057026863098145
            ],
            "min" : [
                -2.577531337738037,
                2.497878074645996,
                -2.7254061698913574
            ],
            "type" : "VEC3"
        },
        {
            "bufferView" : 1,
            "componentType" : 5126,
            "count" : 14991,
            "type" : "VEC3"
        },
        {
            "bufferView" : 2,
            "componentType" : 5126,
            "count" : 14991,
            "type" : "VEC2"
        },
        {
            "bufferView" : 3,
            "componentType" : 5126,
            "count" : 14991,
            "type" : "VEC2"
        },
        {
            "bufferView" : 4,
            "componentType" : 5123,
            "count" : 14991,
            "type" : "SCALAR"
        },
        {
            "bufferView" : 5,
            "componentType" : 5126,
            "count" : 3587,
            "max" : [
                1.6998329162597656,
                0.3113245666027069,
                1.3737273216247559
            ],
            "min" : [
                -2.5878891944885254,
                1.1920928955078125e-07,
                -2.668498992919922
            ],
            "type" : "VEC3"
        },
        {
            "bufferView" : 6,
            "componentType" : 5126,
            "count" : 3587,
            "type" : "VEC3"
        },
        {
            "bufferView" : 7,
            "componentType" : 5126,
            "count" : 3587,
            "type" : "VEC2"
        },
        {
            "bufferView" : 8,
            "componentType" : 5126,
            "count" : 3587,
            "type" : "VEC2"
        },
        {
            "bufferView" : 9,
            "componentType" : 5123,
            "count" : 4290,
            "type" : "SCALAR"
        },
        {
            "bufferView" : 10,
            "componentType" : 5126,
            "count" : 1098,
            "max" : [
                1.6998329162597656,
                0.3113245666027069,
                1.3737273216247559
            ],
            "min" : [
                -2.5878891944885254,
                1.1920928955078125e-07,
                -2.668498992919922
            ],
            "type" : "VEC3"
        },
        {
            "bufferView" : 11,
            "componentType" : 5126,
            "count" : 1098,
            "type" : "VEC3"
        },
        {
            "bufferView" : 12,
            "componentType" : 5126,
            "count" : 1098,
            "type" : "VEC2"
        },
        {
            "bufferView" : 13,
            "componentType" : 5126,
            "count" : 1098,
            "type" : "VEC2"
        },
        {
            "bufferView" : 14,
            "componentType" : 5123,
            "count" : 1170,
            "type" : "SCALAR"
        },
        {
            "bufferView" : 15,
            "componentType" : 5126,
            "count" : 841,
            "max" : [
                1.4049944877624512,
                0.2983527183532715,
                1.239877462387085
            ],
            "min" : [
                -2.3849921226501465,
                0.019457876682281494,
                -2.3772459030151367
            ],
            "type" : "VEC3"
        },
        {
            "bufferView" : 16,
            "componentType" : 5126,
            "count" : 841,
            "type" : "VEC3"
        },
        {
            "bufferView" : 17,
            "componentType" : 5126,
            "count" : 841,
            "type" : "VEC2"
        },
        {
            "bufferView" : 18,
            "componentType" : 5126,
            "count" : 841,
            "type" : "VEC2"
        },
        {
            "bufferView" : 19,
            "componentType" : 5123,
            "count" : 963,
            "type" : "SCALAR"
        },
        {
            "bufferView" : 21,
            "componentType" : 5126,
            "count" : 14980,
            "max" : [
                2.5399584770202637,
                7.137365341186523,
                2.7254061698913574
            ],
            "min" : [
                -2.4576010704040527,
                2.156869411468506,
                -2.6333298683166504
            ],
            "type" : "VEC3"
        },
        {
            "bufferView" : 22,
            "componentType" : 5126,
            "count" : 14980,
            "type" : "VEC3"
        },
        {
            "bufferView" : 23,
            "componentType" : 5126,
            "count" : 14980,
            "type" : "VEC2"
        },
        {
            "bufferView" : 24,
            "componentType" : 5126,
            "count" : 14980,
            "type" : "VEC2"
        },
        {
            "bufferView" : 25,
            "componentType" : 5123,
            "count" : 14982,
            "type" : "SCALAR"
        },
        {
            "bufferView" : 26,
            "componentType" : 5126,
            "count" : 2662,
            "max" : [
                2.373811721801758,
                6.26354455947876,
                2.1422994136810303
            ],
            "min" : [
                -1.9108384847640991,
                0.15946577489376068,
                -2.3263421058654785
            ],
            "type" : "VEC3"
        },
        {
            "bufferView" : 27,
            "componentType" : 5126,
            "count" : 2662,
            "type" : "VEC3"
        },
        {
            "bufferView" : 28,
            "componentType" : 5126,
            "count" : 2662,
            "type" : "VEC2"
        },
        {
            "bufferView" : 29,
            "componentType" : 5126,
            "count" : 2662,
            "type" : "VEC2"
        },
        {
            "bufferView" : 30,
            "componentType" : 5123,
            "count" : 2664,
            "type" : "SCALAR"
        }
    ],
    "bufferViews" : [
        {
            "buffer" : 0,
            "byteLength" : 179892,
            "byteOffset" : 0
        },
        {
            "buffer" : 0,
            "byteLength" : 179892,
            "byteOffset" : 179892
        },
        {
            "buffer" : 0,
            "byteLength" : 119928,
            "byteOffset" : 359784
        },
        {
            "buffer" : 0,
            "byteLength" : 119928,
            "byteOffset" : 479712
        },
        {
            "buffer" : 0,
            "byteLength" : 29982,
            "byteOffset" : 599640
        },
        {
            "buffer" : 0,
            "byteLength" : 43044,
            "byteOffset" : 629624
        },
        {
            "buffer" : 0,
            "byteLength" : 43044,
            "byteOffset" : 672668
        },
        {
            "buffer" : 0,
            "byteLength" : 28696,
            "byteOffset" : 715712
        },
        {
            "buffer" : 0,
            "byteLength" : 28696,
            "byteOffset" : 744408
        },
        {
            "buffer" : 0,
            "byteLength" : 8580,
            "byteOffset" : 773104
        },
        {
            "buffer" : 0,
            "byteLength" : 13176,
            "byteOffset" : 781684
        },
        {
            "buffer" : 0,
            "byteLength" : 13176,
            "byteOffset" : 794860
        },
        {
            "buffer" : 0,
            "byteLength" : 8784,
            "byteOffset" : 808036
        },
        {
            "buffer" : 0,
            "byteLength" : 8784,
            "byteOffset" : 816820
        },
        {
            "buffer" : 0,
            "byteLength" : 2340,
            "byteOffset" : 825604
        },
        {
            "buffer" : 0,
            "byteLength" : 10092,
            "byteOffset" : 827944
        },
        {
            "buffer" : 0,
            "byteLength" : 10092,
            "byteOffset" : 838036
        },
        {
            "buffer" : 0,
            "byteLength" : 6728,
            "byteOffset" : 848128
        },
        {
            "buffer" : 0,
            "byteLength" : 6728,
            "byteOffset" : 854856
        },
        {
            "buffer" : 0,
            "byteLength" : 1926,
            "byteOffset" : 861584
        },
        {
            "buffer" : 0,
            "byteLength" : 35843,
            "byteOffset" : 863512
        },
        {
            "buffer" : 0,
            "byteLength" : 179760,
            "byteOffset" : 899356
        },
        {
            "buffer" : 0,
            "byteLength" : 179760,
            "byteOffset" : 1079116
        },
        {
            "buffer" : 0,
            "byteLength" : 119840,
            "byteOffset" : 1258876
        },
        {
            "buffer" : 0,
            "byteLength" : 119840,
            "byteOffset" : 1378716
        },
        {
            "buffer" : 0,
            "byteLength" : 29964,
            "byteOffset" : 1498556
        },
        {
            "buffer" : 0,
            "byteLength" : 31944,
            "byteOffset" : 1528520
        },
        {
            "buffer" : 0,
            "byteLength" : 31944,
            "byteOffset" : 1560464
        },
        {
            "buffer" : 0,
            "byteLength" : 21296,
            "byteOffset" : 1592408
        },
        {
            "buffer" : 0,
            "byteLength" : 21296,
            "byteOffset" : 1613704
        },
        {
            "buffer" : 0,
            "byteLength" : 5328,
            "byteOffset" : 1635000
        }
    ],
    "samplers" : [
        {
            "magFilter" : 9729,
            "minFilter" : 9987
        }
    ],
    "buffers" : [
        {
            "byteLength" : 1640328,
            "uri" : "data:application/octet-stream;base64,"
        }
    ]
}
